PathFileType	4	(X/Y/Z)	D:\Research_projects\MuscleProsody\BulkSports2Dtrack\RetrackedSports2D\p1_sample60_cam3\p1_sample60_cam3_Sports2D\p1_sample60_cam3_Sports2D_px_person00.trc
DataRate	CameraRate	NumFrames	NumMarkers	Units	OrigDataRate	OrigDataStartFrame	OrigNumFrames
60	60	8	22	m	60	390	780
Frame#	Time	Hip			RHip			RKnee			RAnkle			RBigToe			RSmallToe			RHeel			LHip			LKnee			LAnkle			LBigToe			LSmallToe			LHeel			Neck			Head			Nose			RShoulder			RElbow			RWrist			LShoulder			LElbow			LWrist		
		X1	Y1	Z1	X2	Y2	Z2	X3	Y3	Z3	X4	Y4	Z4	X5	Y5	Z5	X6	Y6	Z6	X7	Y7	Z7	X8	Y8	Z8	X9	Y9	Z9	X10	Y10	Z10	X11	Y11	Z11	X12	Y12	Z12	X13	Y13	Z13	X14	Y14	Z14	X15	Y15	Z15	X16	Y16	Z16	X17	Y17	Z17	X18	Y18	Z18	X19	Y19	Z19	X20	Y20	Z20	X21	Y21	Z21	X22	Y22	Z22
390	6.5	248.43179262254196	549.111078546829	0.0	223.30204766430495	553.0872403668136	0.0	213.479860876122	670.7405267547595	0.0	221.5597475893122	774.4502693898246	0.0	186.72436219135008	807.065697575048	0.0	179.4582546195082	800.273516525042	0.0	233.54643569749462	787.7595046816284	0.0	279.40660717105857	546.2387752871191	0.0	266.69238189750536	676.1097472476473	0.0	258.51600802888385	792.9935791013751	0.0	223.5687457501653	827.3070895503372	0.0	244.22694675132604	831.4586522674718	0.0	265.9926664366964	807.1825403872418	0.0	184.2480152767493	386.0305138103589	0.0	124.09035458122386	316.2083294281825	0.0	125.25022479875396	368.068063407162	0.0	165.7833741083389	435.0693183582436	0.0	138.20370847667485	498.7808800714318	0.0	70.22786378617913	527.345721175489	0.0	243.5727905016771	372.4171269143727	0.0	321.59015654216574	337.82677728862876	0.0	324.28826835162425	253.90808825836953	0.0
391	6.516666666666667	247.9106413371513	549.0675668997011	0.0	222.8789259508857	552.9741331403089	0.0	213.32072342182244	670.5840779791913	0.0	221.55398293122005	774.5201350200302	0.0	186.40738580921519	806.9113058119303	0.0	179.40104742968677	800.1395812893866	0.0	233.70420347480723	787.9180924040962	0.0	278.68674662049625	546.1426156709617	0.0	266.13140042988067	676.2108361201392	0.0	258.5239560241206	792.8127229253204	0.0	223.50297376912425	827.2566790421533	0.0	244.11862653292766	831.4639810829846	0.0	266.28222591399145	807.1082592388161	0.0	183.64754365262067	385.80722728895717	0.0	123.66807923291262	315.9595592093318	0.0	124.75132766610936	367.8105843014052	0.0	165.78295114546688	434.97473054962205	0.0	138.8201697867017	499.1485493838893	0.0	70.62276792000748	528.1402974687115	0.0	242.66371077718114	372.5044034866384	0.0	321.3619715847985	339.8953868542234	0.0	325.33271706956833	256.9884144909565	0.0
392	6.533333333333333	247.28278153356794	548.9814583871733	0.0	222.3513297999879	552.7723169801744	0.0	213.04430587455946	670.3432284296848	0.0	221.4793337354231	774.5366940101477	0.0	185.9994452362442	806.7137638398893	0.0	179.30162444753026	799.9649091730789	0.0	233.86002095022218	788.0543666921363	0.0	277.79000178579184	546.068970138816	0.0	265.38027294436347	676.3049056393077	0.0	258.52103924949586	792.6719472212975	0.0	223.3828430181203	827.207188983587	0.0	243.9775631424588	831.4567818455854	0.0	266.6422867174572	807.0438189955603	0.0	183.23008309912083	385.36221841002646	0.0	123.60028673772779	315.3359721435057	0.0	124.5043162566867	367.1679746529386	0.0	165.86522779080025	434.4382759851005	0.0	139.4948687318477	498.95689349080874	0.0	70.78622525099593	528.0460069863788	0.0	241.93513153051057	372.6002044110972	0.0	321.4399165481122	342.75487182069	0.0	327.0813979734921	261.4486117392472	0.0
393	6.55	246.5608392188881	548.8352662997573	0.0	221.7290052271495	552.4722697711534	0.0	212.668197029987	670.0000046839893	0.0	221.35964154613842	774.4825505448665	0.0	185.52231599043532	806.480246154166	0.0	179.16266473540966	799.7521744866481	0.0	234.02325224006702	788.1439088672298	0.0	276.74108822884835	546.0078577623593	0.0	264.46407518612256	676.3667407727894	0.0	258.5170229275281	792.5590280272836	0.0	223.21045094337026	827.1615511174273	0.0	243.7996671160346	831.4315808595213	0.0	267.06539192310686	806.9817338714568	0.0	183.00941037215603	384.69151810136435	0.0	123.89113234343041	314.3471758728736	0.0	124.51446943295963	366.1406973818529	0.0	166.0268189017777	433.49887930903014	0.0	140.25976354347372	498.2910389583031	0.0	70.76958119886235	527.1473205684031	0.0	241.3925225235159	372.6906741089168	0.0	321.750094827022	346.417378237555	0.0	329.29865734092834	267.3042596506929	0.0
394	6.566666666666666	245.75221995801235	548.6214012340348	0.0	221.01493885811274	552.075917496773	0.0	212.21067633111835	669.5513088841515	0.0	221.22051282046013	774.3421551520127	0.0	185.00705013002536	806.2288223706931	0.0	178.99205273054991	799.5104679411289	0.0	234.19709371303998	788.1634835092153	0.0	275.5612473517111	545.959032685725	0.0	263.4113297468704	676.3761492171286	0.0	258.51981074197283	792.4573027034129	0.0	222.99682769795697	827.1258915678422	0.0	243.58766192903855	831.3873268715389	0.0	267.534268810873	806.913183593001	0.0	183.00221215994458	383.79717354493926	0.0	124.53882121532484	313.0143821853081	0.0	124.78577677357812	364.7559774890146	0.0	166.2707009752395	432.200785129192	0.0	141.1545988170577	497.2378609834233	0.0	70.65347471387517	525.5428142003317	0.0	241.05279696254766	372.7646269131615	0.0	322.20411840392933	350.89473963185935	0.0	331.7119614253206	274.56471091356474	0.0
395	6.583333333333333	244.85955393629985	548.3438777846791	0.0	220.20723817221545	551.5974580814052	0.0	211.68895529891495	669.0137020892931	0.0	221.08602773530023	774.1052544277902	0.0	184.48797666425057	805.9814972244808	0.0	178.80266275551455	799.2540007310809	0.0	234.37571206891772	788.0929213834829	0.0	274.26805708257797	545.9302409256659	0.0	262.25145809878603	676.3238819733876	0.0	258.5318267962956	792.3520281750441	0.0	222.7580560146222	827.1083060371353	0.0	243.34621024881147	831.3301603992862	0.0	268.0217991407247	806.8335753292441	0.0	183.22195023588336	382.6903967799452	0.0	125.53415807162648	311.37006708263203	0.0	125.31784745291692	363.0607468004628	0.0	166.60323727902764	430.5927541050726	0.0	142.21851284735928	495.88745614851746	0.0	70.52944743470209	523.344701570431	0.0	240.94373113537813	372.82065557633496	0.0	322.70308524098414	356.1923931506982	0.0	334.03394055504054	283.2375691800991	0.0
396	6.6	243.8830969939197	548.016479380271	0.0	219.30293266814832	551.0619177364846	0.0	211.11586558039016	668.4203376337446	0.0	220.9752985808506	773.7700863817341	0.0	183.9972546128488	805.7562447607947	0.0	178.61084353181258	798.9978832574739	0.0	234.54566011342644	787.9185819444865	0.0	272.87768223604445	545.9323308325295	0.0	261.0150328969499	676.2127962340237	0.0	258.5494553296325	792.2352675345815	0.0	222.5110430940028	827.1168828455054	0.0	243.07953535926103	831.2701014641204	0.0	268.4949461908098	806.7450744449885	0.0	183.67158176846098	381.39393607535754	0.0	126.85951934597	309.4585539393376	0.0	126.10288691791138	361.10913875239436	0.0	167.02822595589188	428.7295139329417	0.0	143.48136069593895	494.33636463380736	0.0	70.48418759695184	520.6801291992743	0.0	241.09349341091232	372.87295752525864	0.0	323.1451041960675	362.298120694644	0.0	335.98214846590446	293.32265861039957	0.0
397	6.616666666666666	242.8241328595742	547.6600092683452	0.0	218.30175549926653	550.5040089787009	0.0	210.50237932219142	667.8102112052094	0.0	220.89747496722728	773.34510514665	0.0	183.56211726614876	805.5684313883962	0.0	178.43180476621436	798.7571260143717	0.0	234.69019740923721	787.6408745037959	0.0	271.4051175214281	545.9759451855681	0.0	259.73439086560296	676.0508216193434	0.0	258.5637894580527	792.1063416784496	0.0	222.2707082245223	827.1556369015578	0.0	242.79486732001288	831.2136423669058	0.0	268.9195464747367	806.6517798094366	0.0	184.3446068759854	379.9381001668495	0.0	128.49234831461362	307.3361821344346	0.0	127.12756864091811	358.9592440798184	0.0	167.54722445209106	426.66851763286695	0.0	144.9616175327964	492.68017065922976	0.0	70.59300223767683	517.6938732812432	0.0	241.5207267351193	372.94515574268837	0.0	323.4310899990983	369.1713318948288	0.0	337.294935441406	304.7936011816805	0.0
